<?xml version="1.0" standalone="no"?>
<!DOCTYPE svg PUBLIC "-//W3C//DTD SVG 20010904//EN"
 "http://www.w3.org/TR/2001/REC-SVG-20010904/DTD/svg10.dtd">
<svg version="1.0" xmlns="http://www.w3.org/2000/svg"
 width="800.000000pt" height="600.000000pt" viewBox="0 0 800.000000 600.000000"
 preserveAspectRatio="xMidYMid meet">

<g transform="translate(0.000000,600.000000) scale(0.100000,-0.100000)"
fill="#000000" stroke="none">
<path d="M2419 4790 c-3 -25 -2 -61 1 -80 l6 -35 5 35 c2 19 2 55 -1 80 l-6
45 -5 -45z"/>
<path d="M5932 4728 c-2 -35 -4 -37 -39 -41 l-38 -4 37 -1 c35 -2 37 -4 41
-39 l4 -38 1 37 c2 35 4 37 40 41 l37 4 -37 1 c-35 2 -37 4 -41 40 l-4 37 -1
-37z"/>
<path d="M2813 4743 c20 -2 54 -2 75 0 20 2 3 4 -38 4 -41 0 -58 -2 -37 -4z"/>
<path d="M4762 4683 c153 -2 403 -2 556 0 152 1 27 2 -278 2 -305 0 -430 -1
-278 -2z"/>
<path d="M5713 4683 c15 -2 37 -2 50 0 12 2 0 4 -28 4 -27 0 -38 -2 -22 -4z"/>
<path d="M3718 4660 c-147 -27 -275 -87 -358 -170 -68 -68 -99 -130 -81 -163
10 -18 9 -30 -4 -59 -8 -21 -15 -43 -14 -50 0 -7 7 5 15 27 29 79 55 75 29 -5
-9 -28 -15 -53 -13 -56 3 -2 12 21 22 52 11 36 24 58 38 63 11 4 37 32 57 61
87 131 252 199 479 200 230 0 396 -71 447 -192 11 -28 23 -40 48 -46 20 -6 37
-5 45 1 10 8 16 7 21 -1 4 -6 8 7 8 30 5 117 -132 242 -322 294 -69 18 -342
28 -417 14z m407 -24 c144 -40 262 -121 305 -212 24 -52 19 -81 -16 -90 -36
-9 -51 0 -72 48 -36 82 -134 145 -274 174 -116 25 -330 15 -431 -20 -120 -40
-186 -88 -242 -171 -40 -60 -68 -70 -99 -36 -17 19 -17 22 10 71 66 122 222
214 421 250 75 14 328 4 398 -14z"/>
<path d="M7260 4556 c0 -2 8 -10 18 -17 15 -13 16 -12 3 4 -13 16 -21 21 -21
13z"/>
<path d="M6284 4528 l-19 -23 23 19 c21 18 27 26 19 26 -2 0 -12 -10 -23 -22z"/>
<path d="M7346 4480 c61 -67 98 -118 138 -190 20 -36 36 -61 36 -56 0 33 -121
207 -181 261 -28 24 -26 22 7 -15z"/>
<path d="M6203 4454 c-38 -44 -83 -106 -61 -84 20 20 118 140 114 140 -3 0
-26 -25 -53 -56z"/>
<path d="M3745 4484 c-181 -40 -351 -166 -393 -293 -12 -36 -22 -81 -22 -101
0 -20 -3 -40 -6 -43 -8 -8 -40 32 -47 58 -4 16 -5 17 -6 3 -1 -20 -31 -25 -31
-5 0 8 -3 8 -8 1 -4 -5 -22 -16 -40 -23 -32 -13 -62 -54 -62 -84 0 -8 -11 -18
-24 -21 -60 -15 -91 -141 -53 -213 l17 -32 -87 -4 -88 -3 92 -2 c107 -2 143
-15 143 -49 0 -35 26 -80 58 -98 25 -15 17 -15 -118 -10 -349 13 -1816 75
-1927 81 l-123 6 0 -720 c0 -397 3 -722 8 -724 4 -2 212 -1 462 2 l455 6 -455
1 -455 1 -3 703 c-1 387 1 706 5 710 12 12 2227 -83 2235 -96 4 -5 8 -122 8
-260 l-1 -250 -45 -34 c-25 -19 -65 -62 -89 -95 -40 -57 -229 -370 -290 -481
-15 -28 -34 -57 -41 -66 -8 -8 -14 -21 -14 -27 0 -7 -4 -12 -8 -12 -4 0 -13
-15 -20 -34 -10 -28 -19 -34 -50 -40 -20 -3 -190 -7 -377 -8 l-340 -3 366 -5
367 -5 -45 -77 -45 -78 -216 -1 c-120 -1 -209 -3 -199 -6 15 -4 17 -20 17
-154 l0 -150 -138 3 -137 3 -3 142 -3 142 98 4 c54 1 -53 3 -237 3 -214 -1
-251 -2 -102 -3 l232 -3 0 -145 0 -145 -199 0 c-170 0 -202 -2 -216 -16 -9 -9
-13 -24 -10 -35 6 -18 -4 -19 -247 -22 -139 -1 56 -3 435 -5 378 -1 687 -5
687 -9 0 -5 -7 -30 -15 -57 -33 -108 -9 -218 55 -251 43 -22 147 -19 225 6 36
12 156 70 268 129 111 59 203 104 205 99 2 -5 -4 -90 -12 -190 -9 -99 -16
-187 -16 -195 0 -11 -58 -14 -347 -17 -192 -1 293 -2 1077 -2 784 0 1282 1
1108 2 -284 3 -318 5 -318 19 0 9 -7 93 -16 186 -8 94 -13 172 -10 175 2 3 98
-42 213 -99 220 -110 293 -134 382 -126 31 3 66 15 90 31 l40 27 458 3 458 2
-459 3 -458 2 6 22 c20 73 17 99 -19 216 l-7 22 748 2 c412 2 663 4 557 5
-189 3 -191 4 -185 25 11 42 -16 48 -230 48 l-198 0 0 145 0 145 233 3 c148 1
111 2 -103 3 -184 0 -291 -2 -237 -3 l97 -4 0 -144 0 -145 -140 0 -140 0 0
145 c0 129 2 146 18 153 9 4 -136 9 -322 12 l-339 5 -44 73 c-24 41 -43 78
-43 82 0 5 10 11 23 13 16 3 14 5 -10 6 -27 1 -36 8 -62 55 -17 29 -31 56 -31
60 0 4 68 4 150 0 l150 -7 0 516 c0 283 3 522 6 531 5 14 -11 16 -137 16 -79
0 -149 -4 -156 -8 -8 -5 -14 -149 -22 -501 -5 -271 -13 -496 -16 -499 -6 -7 3
-22 -103 159 l-92 157 0 189 c0 104 3 292 7 416 l6 226 106 4 106 3 -111 2
-111 2 -6 -97 c-4 -54 -7 -237 -8 -408 0 -244 -3 -306 -12 -291 -7 10 -36 55
-66 100 l-54 81 2 315 c3 314 3 315 26 338 13 13 26 41 30 63 4 21 7 40 8 40
1 1 58 5 127 9 l125 6 -102 2 c-57 1 -103 4 -103 7 0 3 8 18 17 32 23 35 23
127 0 170 -10 18 -31 40 -47 48 -21 11 -30 23 -30 39 0 23 -50 76 -71 76 -17
0 -9 17 13 27 21 9 21 10 -10 21 -31 11 -32 10 -32 -19 0 -19 -5 -29 -15 -29
-10 0 -15 10 -15 29 0 48 -12 94 -21 80 -5 -9 -39 17 -112 87 -165 157 -261
204 -427 210 -61 2 -120 -2 -165 -12z m280 -15 c107 -26 194 -85 341 -230 110
-108 122 -139 52 -139 l-41 0 19 -22 c18 -22 19 -36 14 -253 -5 -226 -5 -231
-33 -286 -54 -111 -224 -242 -369 -285 -28 -9 -69 -27 -90 -41 -35 -21 -42
-23 -56 -10 -23 19 -65 34 -135 47 -183 36 -332 184 -383 382 -14 53 -16 96
-10 268 8 264 28 333 120 418 93 86 204 142 321 161 65 11 187 6 250 -10z
m425 -393 c-6 -8 -18 -12 -26 -9 -19 7 -7 23 18 23 17 0 18 -3 8 -14z m-1155
-27 c19 -18 20 -33 20 -220 l0 -201 -28 -24 c-49 -42 -108 -28 -133 31 -17 42
-20 335 -3 384 21 60 98 76 144 30z m1248 19 c44 -23 46 -34 47 -241 l0 -198
-26 -24 c-37 -34 -78 -33 -115 4 l-29 29 0 192 0 192 29 29 c31 31 59 36 94
17z m-1159 -578 l39 -75 5 -161 5 -160 -64 -25 c-35 -13 -67 -25 -71 -27 -5
-2 -8 112 -8 252 0 256 0 257 -22 265 -23 8 -23 8 -2 15 12 4 30 16 40 27 l19
21 10 -28 c5 -16 27 -63 49 -104z m1063 100 c14 -11 41 -20 59 -20 l34 0 0
-183 c0 -101 -3 -238 -6 -304 l-7 -121 -45 35 c-101 77 -188 103 -344 103
l-108 0 0 71 0 70 48 21 c74 33 172 101 229 159 50 53 103 141 103 173 0 21 7
20 37 -4z m-835 -315 c40 -19 78 -35 86 -35 10 0 12 -17 10 -67 l-3 -68 -130
-5 c-71 -3 -131 -5 -132 -5 -2 1 -5 273 -3 299 0 5 22 -12 50 -38 27 -26 82
-62 122 -81z m1583 60 c0 -19 -9 -20 -124 -25 -67 -3 -128 -2 -133 1 -6 4 -8
14 -5 23 5 12 28 16 119 19 149 4 143 5 143 -18z m3 -66 c4 -22 -36 -29 -164
-29 -97 0 -104 1 -104 20 0 17 8 20 83 23 147 6 181 4 185 -14z m-1180 -96
l-3 -68 -145 0 -145 0 -3 63 c-3 55 -1 62 16 62 34 0 113 -32 124 -50 11 -17
13 -17 43 6 29 22 91 53 108 54 4 0 7 -30 5 -67z m1182 32 c0 -21 -7 -23 -147
-30 -118 -6 -123 -5 -123 14 0 26 14 28 153 30 99 1 117 -1 117 -14z m-2 -66
c4 -22 -36 -29 -164 -29 -97 0 -104 1 -104 20 0 18 8 20 98 23 151 5 166 4
170 -14z m-905 -64 c173 -45 233 -106 432 -443 85 -145 155 -267 155 -271 0
-16 -310 -252 -315 -239 -2 7 -15 155 -30 328 -14 173 -30 334 -36 356 -14 53
-59 108 -112 137 -42 22 -46 22 -507 22 -461 0 -465 0 -507 -22 -53 -29 -98
-84 -112 -137 -6 -22 -23 -183 -37 -356 -14 -173 -28 -317 -29 -318 -6 -6
-325 262 -325 272 0 14 215 379 274 465 73 107 164 173 284 206 73 20 788 20
865 0z m905 -2 c-3 -16 -19 -18 -136 -21 -106 -2 -132 0 -132 11 0 8 3 17 7
20 3 4 64 7 135 7 118 0 129 -2 126 -17z m-2 -54 c13 -21 -12 -27 -138 -31
-118 -5 -128 -3 -128 13 0 22 19 26 152 28 68 0 109 -3 114 -10z m0 -60 c12
-21 -12 -26 -138 -33 -123 -6 -128 -5 -128 13 0 16 8 21 48 24 109 8 211 7
218 -4z m-817 -28 c52 -27 95 -79 109 -132 6 -24 25 -213 42 -419 17 -206 46
-554 65 -773 19 -219 35 -402 35 -408 0 -5 -290 -9 -751 -9 l-752 0 7 57 c3
32 33 380 66 773 33 393 65 738 70 766 12 59 55 116 108 144 35 18 62 19 500
20 439 0 465 -1 501 -19z m817 -32 c3 -6 2 -14 -2 -19 -13 -11 -264 -20 -264
-9 0 5 0 12 0 17 -1 19 254 30 266 11z m-1 -69 c0 -12 -23 -15 -137 -18 -85
-1 -138 1 -138 7 0 23 41 31 155 28 99 -2 120 -5 120 -17z m0 -60 c0 -12 -23
-15 -137 -18 -111 -2 -138 0 -138 11 0 8 3 17 7 21 4 3 66 5 137 4 109 -3 131
-6 131 -18z m0 -60 c0 -12 -23 -15 -137 -18 -111 -2 -138 0 -138 11 0 8 3 17
7 21 4 3 66 5 137 4 109 -3 131 -6 131 -18z m0 -60 c0 -13 -22 -15 -135 -15
-121 0 -135 2 -138 18 -3 16 7 17 135 15 115 -3 138 -6 138 -18z m-2 -44 c3
-8 3 -17 0 -20 -4 -3 -66 -6 -140 -6 -104 0 -133 3 -133 13 0 25 12 27 141 27
100 0 128 -3 132 -14z m-3 -66 c0 -19 -7 -20 -135 -20 -128 0 -135 1 -135 20
0 19 7 20 135 20 128 0 135 -1 135 -20z m4 -48 c13 -22 -17 -27 -141 -24 -106
3 -133 7 -133 18 0 11 26 14 134 14 74 0 137 -4 140 -8z m-4 -62 c0 -19 -7
-20 -135 -20 -128 0 -135 1 -135 20 0 19 7 20 135 20 128 0 135 -1 135 -20z
m-2166 -180 c86 -72 156 -133 156 -138 -1 -4 -95 -104 -209 -222 -115 -118
-208 -216 -206 -218 2 -2 94 47 204 109 111 61 203 110 205 108 4 -5 -20 -269
-25 -274 -20 -19 -401 -214 -461 -236 -102 -37 -201 -40 -243 -7 -59 46 -72
151 -32 248 13 30 85 161 161 290 76 129 170 288 208 353 38 64 72 117 77 117
4 0 78 -59 165 -130z m2075 -250 c111 -186 210 -359 221 -382 24 -52 26 -144
5 -194 -21 -51 -87 -79 -169 -71 -88 9 -154 35 -360 142 -210 109 -190 83
-202 263 -4 69 -3 102 4 102 6 0 86 -36 178 -80 92 -44 172 -80 177 -80 6 0
-78 86 -186 192 -109 105 -196 195 -195 199 4 9 310 248 319 249 4 0 97 -153
208 -340z m-1909 80 c0 -5 -5 -10 -11 -10 -5 0 -7 5 -4 10 3 6 8 10 11 10 2 0
4 -4 4 -10z m-1 -57 c0 -21 -3 -55 -7 -76 -7 -38 -10 -40 -182 -137 -96 -54
-177 -96 -180 -94 -8 9 335 344 352 344 14 0 18 -8 17 -37z m1556 -123 c88
-88 155 -160 149 -160 -9 0 -304 137 -310 143 -8 8 -14 177 -8 177 5 0 81 -72
169 -160z m-2116 128 c-7 -13 -46 -81 -87 -151 l-74 -128 -102 3 -101 3 -3
134 c-1 74 0 141 2 148 4 10 48 13 191 13 l186 0 -12 -22z m3079 -130 l3 -148
-194 0 c-156 0 -197 -3 -214 -15 -22 -15 -24 -12 -118 145 -52 89 -95 163 -95
166 0 2 138 3 308 2 l307 -3 3 -147z m-3258 -169 c0 -6 -5 -19 -10 -30 -10
-18 -26 -19 -444 -19 -373 0 -435 2 -446 15 -10 12 -10 18 0 30 11 13 74 15
456 15 308 0 444 -3 444 -11z m3974 -12 c8 -14 8 -20 -4 -27 -16 -11 -1077
-14 -1104 -4 -19 7 -21 40 -3 47 6 3 257 5 556 4 509 -2 545 -3 555 -20z"/>
<path d="M4123 4342 c36 -37 34 -45 -7 -40 -19 2 -32 0 -30 -4 8 -12 72 -10
80 3 7 11 -43 69 -60 69 -5 0 2 -13 17 -28z"/>
<path d="M4220 4255 c0 -3 12 -16 27 -29 33 -29 23 -49 -20 -42 -30 6 -30 5
-7 -4 26 -12 70 1 70 19 0 5 -16 21 -35 35 -19 15 -35 24 -35 21z"/>
<path d="M1089 4441 c-3 -25 -2 -63 1 -85 l6 -41 5 44 c3 25 2 63 -1 85 l-6
41 -5 -44z"/>
<path d="M7150 4466 c0 -2 8 -10 18 -17 15 -13 16 -12 3 4 -13 16 -21 21 -21
13z"/>
<path d="M7256 4370 c38 -41 85 -105 104 -142 19 -37 36 -65 38 -63 12 12 -74
141 -137 205 l-74 75 69 -75z"/>
<path d="M6360 4085 l0 -294 -87 -4 -88 -3 88 -2 88 -2 -1 -77 c-3 -149 -6
-139 62 -209 l61 -64 229 0 228 0 3 -617 2 -618 3 618 2 617 71 0 70 0 -7
-677 c-4 -373 -11 -686 -16 -695 -8 -16 -32 -18 -241 -21 l-232 -2 248 -3
c198 -2 255 1 282 12 l35 15 1 578 c0 318 0 611 -1 651 -1 44 3 79 11 88 8 10
8 14 0 14 -8 0 -11 136 -11 495 l0 495 -400 0 -400 0 0 -295z m790 -180 l0
-465 -325 0 -325 0 0 60 0 59 -62 3 -63 3 -3 403 -2 402 390 0 390 0 0 -465z
m-662 -402 c2 -24 -1 -43 -5 -43 -5 0 -29 21 -53 46 l-45 45 50 -3 50 -3 3
-42z m662 -752 c0 -723 2 -690 -48 -706 -20 -6 -23 -4 -19 12 3 10 9 323 13
696 l7 677 23 0 24 0 0 -679z"/>
<path d="M6552 4273 c37 -2 100 -2 140 0 40 1 10 3 -67 3 -77 0 -110 -1 -73
-3z"/>
<path d="M6552 4223 c37 -2 100 -2 140 0 40 1 10 3 -67 3 -77 0 -110 -1 -73
-3z"/>
<path d="M6552 4113 c37 -2 100 -2 140 0 40 1 10 3 -67 3 -77 0 -110 -1 -73
-3z"/>
<path d="M6761 3911 c-34 -68 -60 -126 -57 -129 8 -8 8 -8 70 116 32 63 55
119 53 125 -2 7 -32 -44 -66 -112z"/>
<path d="M6567 3952 c-49 -20 -89 -41 -89 -47 0 -5 37 -27 83 -47 92 -40 99
-42 99 -29 0 5 -32 22 -71 37 -38 15 -72 31 -74 34 -3 4 26 20 63 35 68 29 89
41 81 49 -2 3 -44 -12 -92 -32z"/>
<path d="M6870 3981 c0 -5 31 -22 68 -38 38 -15 70 -32 72 -38 3 -8 -48 -34
-135 -68 -5 -2 -7 -8 -3 -12 10 -10 189 67 185 79 -3 9 -160 84 -179 85 -5 1
-8 -3 -8 -8z"/>
<path d="M6832 3693 c37 -2 100 -2 140 0 40 1 10 3 -67 3 -77 0 -110 -1 -73
-3z"/>
<path d="M6832 3643 c37 -2 100 -2 140 0 40 1 10 3 -67 3 -77 0 -110 -1 -73
-3z"/>
<path d="M6838 3533 c39 -2 105 -2 145 0 39 1 7 3 -73 3 -80 0 -112 -2 -72 -3z"/>
<path d="M6264 4313 c-30 -41 -39 -62 -15 -33 23 27 44 60 38 60 -2 0 -12 -12
-23 -27z"/>
<path d="M4422 4295 c0 -5 6 -26 13 -45 7 -19 14 -28 14 -20 0 8 -6 29 -14 45
-7 17 -13 26 -13 20z"/>
<path d="M4467 4280 c3 -14 12 -47 20 -75 l13 -50 -5 43 c-3 24 -12 58 -20 75
-10 22 -13 24 -8 7z"/>
<path d="M6200 4209 c-12 -23 -20 -43 -18 -45 3 -2 14 17 26 41 27 56 20 60
-8 4z"/>
<path d="M7520 4218 c4 -24 49 -158 49 -147 1 20 -38 149 -44 149 -3 0 -5 -1
-5 -2z"/>
<path d="M3251 4184 c0 -11 3 -14 6 -6 3 7 2 16 -1 19 -3 4 -6 -2 -5 -13z"/>
<path d="M3282 4150 c0 -14 2 -19 5 -12 2 6 2 18 0 25 -3 6 -5 1 -5 -13z"/>
<path d="M4813 4163 c15 -2 37 -2 50 0 12 2 0 4 -28 4 -27 0 -38 -2 -22 -4z"/>
<path d="M5158 4163 c83 -2 221 -2 305 0 83 1 15 3 -153 3 -168 0 -236 -2
-152 -3z"/>
<path d="M5733 4163 c15 -2 37 -2 50 0 12 2 0 4 -28 4 -27 0 -38 -2 -22 -4z"/>
<path d="M3241 4144 c0 -11 3 -14 6 -6 3 7 2 16 -1 19 -3 4 -6 -2 -5 -13z"/>
<path d="M2123 4123 c15 -2 37 -2 50 0 12 2 0 4 -28 4 -27 0 -38 -2 -22 -4z"/>
<path d="M2442 4123 c70 -2 187 -2 260 0 73 1 16 3 -127 3 -143 0 -203 -2
-133 -3z"/>
<path d="M6151 4074 c0 -11 3 -14 6 -6 3 7 2 16 -1 19 -3 4 -6 -2 -5 -13z"/>
<path d="M7421 4074 c0 -11 3 -14 6 -6 3 7 2 16 -1 19 -3 4 -6 -2 -5 -13z"/>
<path d="M6142 4025 c0 -16 2 -22 5 -12 2 9 2 23 0 30 -3 6 -5 -1 -5 -18z"/>
<path d="M7432 4025 c0 -16 2 -22 5 -12 2 9 2 23 0 30 -3 6 -5 -1 -5 -18z"/>
<path d="M7577 3960 c3 -52 7 -97 9 -99 7 -8 3 104 -6 149 -5 31 -6 15 -3 -50z"/>
<path d="M6002 4000 c0 -14 2 -19 5 -12 2 6 2 18 0 25 -3 6 -5 1 -5 -13z"/>
<path d="M6133 3915 c0 -38 2 -53 4 -32 2 20 2 52 0 70 -2 17 -4 1 -4 -38z"/>
<path d="M7443 3915 c0 -38 2 -53 4 -32 2 20 2 52 0 70 -2 17 -4 1 -4 -38z"/>
<path d="M5993 3915 c0 -22 2 -30 4 -17 2 12 2 30 0 40 -3 9 -5 -1 -4 -23z"/>
<path d="M6002 3818 c-1 -25 -7 -38 -19 -41 -10 -3 23 -5 74 -6 50 0 94 2 96
7 2 4 1 18 -4 32 l-7 25 -1 -27 c-1 -28 -2 -28 -65 -28 l-65 0 -4 38 -4 37 -1
-37z"/>
<path d="M7573 3815 c0 -22 2 -30 4 -17 2 12 2 30 0 40 -3 9 -5 -1 -4 -23z"/>
<path d="M7432 3805 c0 -16 2 -22 5 -12 2 9 2 23 0 30 -3 6 -5 -1 -5 -18z"/>
<path d="M861 3794 c-17 -14 -35 -42 -41 -62 -6 -24 -10 -326 -10 -848 l0
-811 21 -19 c20 -18 40 -19 283 -19 251 -1 253 -1 37 2 -133 2 -229 8 -237 14
-18 15 -23 181 -29 1003 -5 676 -5 730 11 747 25 28 0 23 -35 -7z m21 -1356
c3 -394 3 -398 -17 -392 -47 15 -46 -23 -43 853 3 805 4 827 23 861 l20 35 7
-480 c4 -264 8 -659 10 -877z"/>
<path d="M1003 3813 c26 -2 68 -2 95 0 26 2 4 3 -48 3 -52 0 -74 -1 -47 -3z"/>
<path d="M1223 3803 c26 -2 68 -2 95 0 26 2 4 3 -48 3 -52 0 -74 -1 -47 -3z"/>
<path d="M1443 3793 c26 -2 68 -2 95 0 26 2 4 3 -48 3 -52 0 -74 -1 -47 -3z"/>
<path d="M1653 3783 c26 -2 68 -2 95 0 26 2 4 3 -48 3 -52 0 -74 -1 -47 -3z"/>
<path d="M1873 3773 c26 -2 67 -2 90 0 23 2 2 3 -48 3 -49 0 -68 -1 -42 -3z"/>
<path d="M2083 3763 c26 -2 68 -2 95 0 26 2 4 3 -48 3 -52 0 -74 -1 -47 -3z"/>
<path d="M5793 3763 c26 -2 68 -2 95 0 26 2 4 3 -48 3 -52 0 -74 -1 -47 -3z"/>
<path d="M7421 3754 c0 -11 3 -14 6 -6 3 7 2 16 -1 19 -3 4 -6 -2 -5 -13z"/>
<path d="M7556 3739 c-8 -42 0 -50 9 -9 4 17 5 34 2 36 -2 3 -7 -10 -11 -27z"/>
<path d="M2303 3753 c26 -2 67 -2 90 0 23 2 2 3 -48 3 -49 0 -68 -1 -42 -3z"/>
<path d="M5583 3753 c26 -2 68 -2 95 0 26 2 4 3 -48 3 -52 0 -74 -1 -47 -3z"/>
<path d="M2523 3743 c26 -2 68 -2 95 0 26 2 4 3 -48 3 -52 0 -74 -1 -47 -3z"/>
<path d="M5363 3743 c26 -2 68 -2 95 0 26 2 4 3 -48 3 -52 0 -74 -1 -47 -3z"/>
<path d="M2733 3733 c26 -2 68 -2 95 0 26 2 4 3 -48 3 -52 0 -74 -1 -47 -3z"/>
<path d="M5148 3733 c29 -2 74 -2 100 0 26 2 2 3 -53 3 -55 0 -76 -1 -47 -3z"/>
<path d="M4933 3723 c26 -2 68 -2 95 0 26 2 4 3 -48 3 -52 0 -74 -1 -47 -3z"/>
<path d="M7528 3642 c-22 -60 -15 -67 7 -7 10 25 16 47 14 50 -3 2 -12 -17
-21 -43z"/>
<path d="M7386 3653 c-6 -14 -5 -15 5 -6 7 7 10 15 7 18 -3 3 -9 -2 -12 -12z"/>
<path d="M6173 3613 c31 -2 83 -2 115 0 31 2 5 3 -58 3 -63 0 -89 -1 -57 -3z"/>
<path d="M5943 3603 c32 -2 81 -2 110 0 29 2 3 3 -58 3 -60 0 -84 -1 -52 -3z"/>
<path d="M5703 3593 c32 -2 81 -2 110 0 29 2 3 3 -58 3 -60 0 -84 -1 -52 -3z"/>
<path d="M5463 3583 c32 -2 81 -2 110 0 29 2 3 3 -58 3 -60 0 -84 -1 -52 -3z"/>
<path d="M5223 3573 c31 -2 83 -2 115 0 31 2 5 3 -58 3 -63 0 -89 -1 -57 -3z"/>
<path d="M7491 3553 c-10 -26 -10 -27 4 -9 8 11 15 23 15 28 0 15 -7 8 -19
-19z"/>
<path d="M4983 3563 c31 -2 83 -2 115 0 31 2 5 3 -58 3 -63 0 -89 -1 -57 -3z"/>
<path d="M7438 3468 c-19 -29 -57 -78 -84 -108 -26 -30 -33 -41 -15 -25 45 42
153 185 139 185 -3 0 -21 -24 -40 -52z"/>
<path d="M5995 3442 c-55 -1 -239 -8 -410 -15 l-310 -12 -3 -532 -2 -533 540
0 539 0 3 103 3 102 218 -1 c207 -2 217 -1 217 17 0 18 -15 19 -440 19 -384 0
-440 2 -440 15 0 13 55 15 439 15 l438 0 6 83 c4 45 7 175 7 288 l0 205 -82
-3 c-46 -1 -145 -4 -220 -6 l-138 -4 0 134 0 133 -132 -2 c-73 -1 -178 -4
-233 -6z m-677 -99 c-4 -22 -22 -20 -26 1 -2 10 3 16 13 16 10 0 15 -7 13 -17z
m42 -3 c0 -11 -4 -20 -10 -20 -5 0 -10 9 -10 20 0 11 5 20 10 20 6 0 10 -9 10
-20z m230 -54 c0 -13 -66 -26 -137 -26 -26 0 -33 4 -33 20 0 18 7 20 85 20 65
0 85 -3 85 -14z m-270 -11 c0 -8 -7 -15 -15 -15 -8 0 -15 7 -15 15 0 8 7 15
15 15 8 0 15 -7 15 -15z m190 -55 c0 -17 -7 -20 -45 -20 -58 0 -64 27 -7 33
20 2 40 4 45 5 4 1 7 -7 7 -18z m-198 -22 c-15 -15 -26 -4 -18 18 5 13 9 15
18 6 9 -9 9 -15 0 -24z m548 -27 c0 -21 -21 -23 -312 -36 -123 -5 -128 -5
-128 15 0 18 7 20 73 21 83 2 361 15 365 17 1 1 2 -7 2 -17z m-540 -26 c0 -8
-7 -15 -15 -15 -8 0 -15 7 -15 15 0 8 7 15 15 15 8 0 15 -7 15 -15z m340 -49
c0 -18 -45 -26 -151 -26 -70 0 -89 3 -89 14 0 20 20 24 138 25 80 1 102 -2
102 -13z m-345 -14 c0 -18 -20 -15 -23 4 -3 10 1 15 10 12 7 -3 13 -10 13 -16z
m403 -49 c-3 -16 -20 -18 -151 -21 -124 -2 -147 0 -147 12 0 16 38 20 213 24
79 2 88 0 85 -15z m-403 -13 c0 -7 -6 -15 -12 -17 -8 -3 -13 4 -13 17 0 13 5
20 13 18 6 -3 12 -11 12 -18z m1093 -32 c-3 -9 -47 -15 -144 -21 -169 -9 -246
-6 -251 10 -5 16 36 19 235 21 127 2 163 -1 160 -10z m-1096 -40 c-15 -15 -26
-4 -18 18 5 13 9 15 18 6 9 -9 9 -15 0 -24z m298 17 c0 -12 -14 -15 -64 -15
-35 0 -78 -3 -95 -6 -27 -6 -31 -4 -31 15 0 20 5 21 95 21 78 0 95 -3 95 -15z
m710 -50 c0 -13 -24 -15 -155 -15 -142 0 -168 4 -148 23 3 4 73 7 155 7 125 0
148 -2 148 -15z m-640 -10 c0 -11 -12 -15 -47 -15 -27 0 -85 -3 -130 -7 -80
-6 -83 -5 -83 16 0 20 4 21 130 21 109 0 130 -2 130 -15z m-362 -7 c-6 -18
-28 -21 -28 -4 0 9 7 16 16 16 9 0 14 -5 12 -12z m897 -48 c0 -12 -18 -15 -99
-15 -68 0 -101 4 -103 12 -4 12 46 18 152 18 38 0 50 -4 50 -15z m-903 -22
c-15 -15 -26 -4 -18 18 5 13 9 15 18 6 9 -9 9 -15 0 -24z m508 17 c0 -12 -15
-15 -78 -15 -44 0 -134 -3 -200 -7 -120 -6 -122 -6 -122 15 0 22 2 22 200 22
171 0 200 -2 200 -15z m-508 -77 c-15 -15 -26 -4 -18 18 5 13 9 15 18 6 9 -9
9 -15 0 -24z m951 17 c1 -6 -47 -11 -125 -13 -117 -2 -141 2 -121 22 11 11
243 2 246 -9z m-948 -63 c0 -18 -20 -15 -23 4 -3 10 1 15 10 12 7 -3 13 -10
13 -16z m755 4 c0 -17 -24 -28 -45 -20 -29 12 -14 34 22 34 13 0 23 -6 23 -14z
m-752 -64 c2 -7 -3 -12 -12 -12 -9 0 -16 7 -16 16 0 17 22 14 28 -4z m412 3
c0 -13 -24 -15 -155 -15 -131 0 -155 2 -155 15 0 13 24 15 155 15 131 0 155
-2 155 -15z m-412 -57 c-6 -18 -28 -21 -28 -4 0 9 7 16 16 16 9 0 14 -5 12
-12z m332 -3 c0 -12 -19 -15 -115 -15 -96 0 -115 3 -115 15 0 12 19 15 115 15
96 0 115 -3 115 -15z m-335 -53 c0 -18 -20 -15 -23 4 -3 10 1 15 10 12 7 -3
13 -10 13 -16z m235 -2 c0 -18 -7 -20 -65 -20 -58 0 -65 2 -65 20 0 18 7 20
65 20 58 0 65 -2 65 -20z m-238 -55 c0 -5 -5 -11 -11 -13 -6 -2 -11 4 -11 13
0 9 5 15 11 13 6 -2 11 -8 11 -13z m288 0 c0 -12 -17 -15 -90 -15 -73 0 -90 3
-90 15 0 12 17 15 90 15 73 0 90 -3 90 -15z m-287 -41 c9 -9 -4 -35 -14 -28
-5 3 -9 12 -9 20 0 14 12 19 23 8z m85 -16 c3 -14 -3 -18 -27 -18 -31 0 -47
13 -36 31 11 16 59 6 63 -13z"/>
<path d="M7204 3408 l-19 -23 23 19 c21 18 27 26 19 26 -2 0 -12 -10 -23 -22z"/>
<path d="M1300 3233 l0 -150 438 -6 c240 -4 625 -10 855 -14 l417 -6 0 69 c0
38 -3 99 -6 135 l-7 66 -266 6 c-146 4 -414 14 -596 22 -181 8 -444 17 -582
21 l-253 7 0 -150z m539 82 c2 -3 5 -49 5 -103 l1 -97 -238 0 c-200 0 -239 2
-247 15 -11 18 -13 183 -2 195 7 8 472 -1 481 -10z m252 -132 c0 -5 2 -22 3
-39 6 -52 -3 -57 -88 -49 l-76 7 0 44 0 44 80 0 c44 0 80 -3 81 -7z m169 -2
c21 -6 25 -13 25 -46 l0 -40 -80 0 -80 0 -3 33 c-5 55 2 62 60 61 29 -1 64 -4
78 -8z m218 -55 l3 -49 -77 7 c-43 4 -81 9 -86 12 -10 6 -11 68 -1 78 4 4 41
5 83 4 l75 -3 3 -49z m205 35 c5 -5 7 -24 5 -42 l-3 -34 -85 0 -85 0 -3 33
c-6 62 -1 66 86 58 42 -4 81 -11 85 -15z m222 -36 l0 -40 -92 -3 -93 -3 0 46
0 46 93 -3 92 -3 0 -40z"/>
<path d="M1375 3301 c-3 -2 -5 -40 -5 -83 l0 -78 210 -2 c116 -1 218 -2 228
-2 14 -1 17 10 20 77 2 56 -1 78 -10 82 -18 6 -438 12 -443 6z"/>
<path d="M1950 3145 c0 -24 2 -25 66 -25 62 0 65 1 62 23 -3 20 -9 22 -65 25
-62 3 -63 2 -63 -23z"/>
<path d="M2140 3141 c0 -20 34 -31 96 -31 30 0 34 3 34 25 0 24 -2 25 -65 25
-57 0 -65 -2 -65 -19z"/>
<path d="M2330 3135 c0 -24 2 -25 65 -25 57 0 65 2 65 19 0 20 -34 31 -96 31
-30 0 -34 -3 -34 -25z"/>
<path d="M2530 3131 c0 -14 10 -20 46 -25 83 -11 94 -9 94 19 0 24 -2 25 -70
25 -62 0 -70 -2 -70 -19z"/>
<path d="M2740 3125 c0 -25 1 -25 76 -25 72 0 75 1 72 23 -3 20 -9 22 -75 25
-72 3 -73 3 -73 -23z"/>
<path d="M7274 3288 l-19 -23 23 19 c12 11 22 21 22 23 0 8 -8 2 -26 -19z"/>
<path d="M5358 2223 c111 -2 293 -2 405 0 111 1 20 2 -203 2 -223 0 -314 -1
-202 -2z"/>
<path d="M6238 2213 c111 -2 293 -2 405 0 111 1 20 2 -203 2 -223 0 -314 -1
-202 -2z"/>
<path d="M6931 2133 c-1 -6 -4 -20 -7 -30 -5 -17 -5 -17 6 0 6 10 9 23 6 30
-3 9 -5 9 -5 0z"/>
<path d="M6850 2111 c0 -6 4 -13 10 -16 6 -3 7 1 4 9 -7 18 -14 21 -14 7z"/>
<path d="M753 1673 c32 -2 81 -2 110 0 29 2 3 3 -58 3 -60 0 -84 -1 -52 -3z"/>
<path d="M6978 1673 c28 -2 76 -2 105 0 28 2 5 3 -53 3 -58 0 -81 -1 -52 -3z"/>
<path d="M7298 1673 c28 -2 76 -2 105 0 28 2 5 3 -53 3 -58 0 -81 -1 -52 -3z"/>
<path d="M6612 1448 c-2 -37 -3 -38 -39 -39 l-38 -2 35 -6 c30 -5 36 -11 41
-41 l6 -35 2 37 c1 35 3 37 39 41 l37 4 -37 1 c-35 2 -37 4 -41 40 l-4 37 -1
-37z"/>
<path d="M6383 1403 c15 -2 37 -2 50 0 12 2 0 4 -28 4 -27 0 -38 -2 -22 -4z"/>
<path d="M1863 1183 c32 -2 81 -2 110 0 29 2 3 3 -58 3 -60 0 -84 -1 -52 -3z"/>
<path d="M2183 1183 c32 -2 81 -2 110 0 29 2 3 3 -58 3 -60 0 -84 -1 -52 -3z"/>
<path d="M5403 1183 c32 -2 81 -2 110 0 29 2 3 3 -58 3 -60 0 -84 -1 -52 -3z"/>
<path d="M5718 1183 c28 -2 76 -2 105 0 28 2 5 3 -53 3 -58 0 -81 -1 -52 -3z"/>
</g>
</svg>
