<?xml version="1.0" standalone="no"?>
<!DOCTYPE svg PUBLIC "-//W3C//DTD SVG 20010904//EN"
 "http://www.w3.org/TR/2001/REC-SVG-20010904/DTD/svg10.dtd">
<svg version="1.0" xmlns="http://www.w3.org/2000/svg"
 width="1024.000000pt" height="694.000000pt" viewBox="0 0 1024.000000 694.000000"
 preserveAspectRatio="xMidYMid meet">

<g transform="translate(0.000000,694.000000) scale(0.100000,-0.100000)"
fill="#000000" stroke="none">
<path d="M80 6680 c0 -17 7 -20 40 -20 l40 0 0 -95 c0 -88 1 -95 20 -95 19 0
20 7 20 95 l0 95 35 0 c28 0 35 4 35 20 0 19 -7 20 -95 20 -88 0 -95 -1 -95
-20z"/>
<path d="M300 6585 c0 -108 1 -115 20 -115 17 0 20 7 20 53 0 60 10 80 36 75
16 -3 20 -14 22 -66 3 -58 4 -62 27 -62 24 0 25 3 25 63 0 92 -33 127 -91 97
-17 -10 -19 -7 -19 30 0 33 -3 40 -20 40 -19 0 -20 -7 -20 -115z"/>
<path d="M760 6680 c0 -13 7 -20 20 -20 13 0 20 7 20 20 0 13 -7 20 -20 20
-13 0 -20 -7 -20 -20z"/>
<path d="M1590 6585 l0 -115 25 0 25 0 0 115 0 115 -25 0 -25 0 0 -115z"/>
<path d="M2527 6693 c-4 -3 -7 -15 -7 -25 0 -10 -4 -18 -10 -18 -5 0 -10 -7
-10 -15 0 -8 5 -15 10 -15 6 0 10 -25 10 -56 0 -68 13 -94 45 -94 25 0 35 23
15 35 -5 3 -10 31 -10 61 0 30 5 54 10 54 6 0 10 7 10 15 0 8 -4 15 -10 15 -5
0 -10 11 -10 25 0 18 -5 25 -18 25 -10 0 -22 -3 -25 -7z"/>
<path d="M505 6615 c-36 -35 -35 -96 1 -124 33 -26 75 -27 105 -2 31 25 18 37
-25 24 -20 -6 -40 -7 -50 -1 -31 18 -15 28 44 28 65 0 70 6 49 53 -22 49 -86
61 -124 22z m85 -35 c0 -6 -16 -10 -35 -10 -40 0 -41 2 -19 24 12 12 20 13 35
6 10 -6 19 -15 19 -20z"/>
<path d="M760 6555 c0 -78 2 -85 20 -85 18 0 20 7 20 85 0 78 -2 85 -20 85
-18 0 -20 -7 -20 -85z"/>
<path d="M840 6554 c0 -83 0 -84 25 -84 23 0 24 4 27 63 3 56 5 62 26 65 21 3
22 0 22 -62 0 -63 1 -66 25 -66 23 0 24 4 27 63 3 56 5 62 26 65 21 3 22 0 22
-62 0 -64 1 -66 25 -66 24 0 25 2 25 68 0 54 -4 72 -18 85 -21 20 -45 21 -73
6 -13 -7 -25 -7 -32 -1 -7 5 -38 10 -69 10 l-58 0 0 -84z"/>
<path d="M1152 6618 c-30 -33 -36 -70 -18 -107 19 -35 54 -48 86 -31 19 10 21
9 18 -6 -5 -27 -34 -41 -58 -26 -43 27 -69 6 -28 -22 31 -22 84 -20 108 4 17
17 20 33 20 115 0 88 -1 95 -20 95 -11 0 -20 -5 -20 -10 0 -7 -6 -7 -19 0 -29
15 -45 12 -69 -12z m80 -44 c15 -32 0 -59 -33 -59 -26 0 -35 21 -25 61 9 33
43 32 58 -2z"/>
<path d="M1442 6633 c-23 -9 -44 -64 -37 -99 11 -63 81 -84 132 -39 l28 24
-25 1 c-14 0 -32 -4 -39 -9 -9 -6 -22 -6 -33 0 -33 18 -19 29 37 29 52 0 55 1
55 25 0 51 -66 89 -118 68z m72 -48 c4 -12 -3 -15 -29 -15 -33 0 -43 8 -28 23
12 13 51 7 57 -8z"/>
<path d="M1695 6615 c-36 -35 -35 -96 1 -124 33 -26 75 -27 105 -2 31 25 18
37 -25 24 -20 -6 -40 -7 -50 -1 -31 18 -15 28 44 28 65 0 70 6 49 53 -22 49
-86 61 -124 22z m85 -35 c0 -6 -16 -10 -35 -10 -40 0 -41 2 -19 24 12 12 20
13 35 6 10 -6 19 -15 19 -20z"/>
<path d="M1860 6555 c0 -78 2 -85 20 -85 16 0 19 8 22 63 3 59 4 62 28 62 24
0 25 -3 28 -62 3 -54 6 -63 22 -63 16 0 19 9 22 63 3 59 4 62 28 62 24 0 25
-3 28 -62 3 -55 6 -63 22 -63 18 0 20 7 20 69 0 50 -4 74 -16 85 -17 18 -55
21 -70 6 -6 -6 -21 -6 -42 2 -26 10 -37 10 -52 0 -12 -7 -20 -8 -20 -2 0 5 -9
10 -20 10 -18 0 -20 -7 -20 -85z"/>
<path d="M2155 6615 c-72 -71 21 -187 103 -129 36 25 26 35 -27 28 -39 -5 -49
-3 -54 10 -5 14 3 16 53 16 58 0 60 1 60 25 0 36 -42 75 -80 75 -19 0 -40 -9
-55 -25z m83 -32 c2 -9 -7 -13 -27 -13 -21 0 -31 5 -31 16 0 19 51 16 58 -3z"/>
<path d="M2320 6555 c0 -78 2 -85 20 -85 17 0 20 7 20 48 0 55 18 86 46 80 16
-3 19 -13 22 -66 3 -54 5 -62 23 -62 18 0 20 6 17 77 -3 75 -4 78 -31 87 -20
8 -34 7 -50 -3 -15 -10 -22 -10 -25 -2 -2 6 -12 11 -23 11 -17 0 -19 -8 -19
-85z"/>
<path d="M3475 6033 c-34 -9 -42 -21 -48 -79 -6 -57 -35 -104 -64 -104 -13 0
-18 -23 -14 -70 1 -14 -12 -47 -29 -73 -16 -26 -30 -52 -30 -56 0 -5 -7 -22
-15 -37 -32 -61 -3 -134 52 -134 24 0 60 39 84 90 9 19 24 52 34 73 l18 38 32
-31 c54 -52 135 -35 137 29 1 35 -36 82 -84 107 l-27 14 17 34 17 33 39 -33
c22 -19 45 -34 52 -34 15 0 74 57 74 71 0 33 -51 78 -159 141 -48 28 -53 29
-86 21z"/>
<path d="M1691 5999 c-37 -37 -38 -50 -7 -83 30 -33 75 -34 104 -3 33 35 28
68 -13 95 -44 28 -47 28 -84 -9z"/>
<path d="M2675 5959 c-38 -36 -49 -54 -56 -94 -13 -68 -2 -128 27 -156 32 -30
114 -38 149 -15 29 19 45 14 45 -15 0 -27 -16 -57 -56 -102 -34 -37 -41 -61
-25 -85 13 -21 54 -39 71 -31 8 4 30 13 48 19 17 7 32 18 32 26 0 7 9 19 20
27 10 7 24 35 31 63 6 27 17 60 23 73 8 19 8 25 -1 28 -7 3 -13 21 -13 41 0
30 -14 67 -72 188 -18 37 -66 65 -123 71 -52 6 -54 5 -100 -38z"/>
<path d="M1368 5888 c-9 -7 -18 -22 -19 -33 -4 -32 12 -115 22 -115 5 0 9 -5
9 -12 0 -7 12 -29 26 -50 l27 -38 -41 -44 c-23 -25 -44 -56 -48 -70 -3 -14
-10 -26 -14 -26 -4 0 -11 -20 -14 -45 -8 -53 11 -103 56 -140 42 -36 117 -35
170 2 24 16 51 26 71 25 41 -1 77 32 77 69 0 29 -77 185 -148 299 -12 19 -22
43 -22 52 0 9 -6 23 -12 30 -7 7 -19 31 -27 53 -8 22 -19 43 -25 47 -18 12
-71 9 -88 -4z m146 -405 c7 -18 -27 -52 -51 -53 -18 0 -16 7 8 41 23 33 34 36
43 12z"/>
<path d="M2210 5883 c-8 -3 -27 -14 -42 -24 -14 -11 -39 -19 -55 -19 -37 0
-73 -39 -73 -79 0 -17 4 -31 9 -31 5 0 11 -17 15 -37 9 -56 40 -113 67 -127
20 -10 28 -10 49 3 41 26 49 43 50 109 0 34 4 62 9 62 4 0 19 -21 32 -47 13
-27 26 -50 29 -53 3 -3 10 -14 16 -24 14 -27 55 -36 91 -21 26 11 30 18 29 48
-1 19 -7 41 -13 48 -6 8 -14 29 -18 47 -10 49 -101 140 -145 146 -19 3 -42 2
-50 -1z"/>
<path d="M1739 5788 c-15 -28 -6 -143 15 -183 9 -16 16 -37 16 -45 0 -8 9 -32
20 -53 11 -20 20 -43 20 -51 0 -17 21 -26 60 -26 40 0 78 52 61 83 -18 36 -41
120 -41 155 0 17 -4 32 -9 32 -5 0 -12 18 -16 39 -8 46 -38 71 -84 71 -21 0
-34 -7 -42 -22z"/>
<path d="M3687 5583 c-7 -16 -29 -54 -50 -86 -42 -65 -47 -105 -17 -132 23
-21 91 -26 98 -7 2 6 14 26 26 44 20 29 27 33 61 31 21 -2 49 -10 62 -18 21
-14 25 -14 47 0 28 19 41 58 26 84 -14 27 -59 61 -81 61 -9 0 -26 11 -37 25
-17 21 -28 25 -71 25 -47 0 -53 -3 -64 -27z"/>
<path d="M945 5386 c-80 -33 -102 -48 -125 -82 -22 -32 -25 -49 -25 -120 0
-76 2 -85 31 -126 45 -62 84 -80 162 -75 58 4 68 9 103 43 68 66 94 119 94
194 0 80 -19 111 -90 145 -64 30 -112 37 -150 21z m103 -166 c3 -26 -51 -110
-71 -110 -26 0 -47 34 -47 77 0 50 19 64 80 60 29 -2 35 -6 38 -27z"/>
<path d="M4044 5390 c-12 -4 -24 -15 -27 -24 -4 -9 -13 -16 -21 -16 -8 0 -28
-19 -45 -42 -25 -33 -31 -52 -31 -90 0 -87 43 -138 115 -138 47 1 82 15 121
51 47 42 81 119 53 119 -7 0 -10 14 -7 38 6 48 -15 98 -44 106 -32 8 -89 6
-114 -4z"/>
<path d="M2700 5334 c-41 -3 -84 -8 -95 -13 -11 -5 -60 -16 -110 -26 -49 -9
-94 -20 -100 -26 -5 -5 -19 -9 -31 -9 -30 0 -124 -31 -124 -42 0 -4 -8 -8 -18
-8 -22 0 -110 -43 -177 -86 -61 -39 -177 -142 -192 -169 -66 -124 -79 -158
-86 -231 -7 -65 6 -174 22 -183 5 -3 14 -25 21 -48 7 -24 17 -43 22 -43 5 0
13 -10 19 -23 5 -12 25 -33 43 -45 30 -20 34 -30 40 -80 10 -101 18 -130 37
-148 18 -16 17 -18 -29 -72 l-47 -55 -3 -102 c-3 -78 -1 -109 11 -131 22 -43
86 -114 102 -114 8 0 18 -7 23 -16 6 -11 35 -20 90 -28 84 -12 109 -28 126
-83 4 -12 20 -33 37 -47 16 -14 29 -29 29 -34 0 -8 21 -27 105 -95 49 -40 167
-94 220 -102 28 -4 55 -11 62 -17 6 -5 52 -12 103 -15 100 -7 112 -19 37 -38
-26 -7 -55 -19 -65 -27 -9 -9 -33 -23 -52 -32 -19 -9 -55 -27 -79 -41 -24 -14
-60 -25 -80 -25 -74 -1 -486 34 -491 41 -3 4 -70 10 -150 14 -239 10 -454 26
-475 35 -25 10 -439 41 -557 40 -52 0 -88 4 -88 10 0 6 -20 10 -44 10 -37 0
-45 -4 -50 -22 -8 -30 -8 -2002 0 -2022 5 -13 25 -16 115 -16 60 0 109 -4 109
-8 0 -4 100 -16 223 -26 122 -10 227 -22 232 -26 6 -4 66 -11 135 -14 226 -12
425 -28 435 -36 9 -7 197 -22 440 -36 60 -3 114 -9 120 -13 5 -5 109 -16 230
-25 121 -10 228 -22 237 -27 24 -12 85 -12 93 1 3 5 13 10 21 10 9 0 30 10 47
23 18 13 50 32 72 43 22 10 65 37 95 59 30 22 78 51 105 65 28 14 64 35 80 46
97 67 159 104 208 124 15 7 27 16 27 21 0 8 38 31 140 84 21 11 47 28 57 37
16 15 33 17 114 13 219 -12 312 42 326 188 3 37 10 67 14 67 12 0 11 67 -1 75
-5 3 -10 32 -10 64 l0 59 35 6 c19 4 35 11 35 16 0 5 25 25 55 45 59 37 74 57
57 78 -5 6 -13 32 -17 57 -4 25 -13 52 -20 60 -7 8 -18 32 -26 53 -7 20 -17
37 -21 37 -4 0 -8 5 -8 11 0 18 -53 121 -97 190 -24 36 -43 71 -43 76 0 26
-254 333 -275 333 -8 0 -18 6 -22 13 -10 15 -99 87 -108 87 -4 0 -24 14 -45
30 -21 17 -43 30 -49 30 -6 0 -11 4 -11 8 0 4 -17 14 -37 21 -21 8 -45 19 -53
27 -8 7 -35 22 -60 33 -67 31 -111 59 -148 94 -35 34 -82 107 -82 129 0 7 -7
25 -14 40 -26 49 -23 62 22 102 23 21 42 45 42 52 0 8 5 14 10 14 6 0 15 11
20 25 5 14 14 25 20 25 12 0 40 64 40 91 0 11 4 19 9 19 5 0 15 23 22 50 l13
50 47 0 c96 0 220 94 239 182 20 94 9 177 -32 254 -24 45 -104 114 -131 114
-31 0 -40 10 -24 28 15 19 15 355 -1 374 -5 7 -17 36 -25 64 -8 28 -20 60 -25
70 -6 11 -20 40 -32 66 -29 64 -120 154 -164 162 -44 8 -90 31 -147 73 -26 18
-54 33 -62 33 -9 0 -19 4 -22 10 -3 5 -32 17 -63 26 -31 9 -62 20 -68 25 -12
10 -290 19 -404 13z m434 -784 c10 -76 52 -214 92 -298 19 -42 31 -79 27 -83
-10 -9 -153 -59 -168 -59 -7 0 -17 11 -23 25 -22 47 -102 122 -155 146 -70 32
-182 33 -248 3 -66 -31 -114 -78 -146 -142 -24 -49 -28 -68 -27 -139 1 -64 -2
-83 -12 -83 -8 0 -14 8 -14 18 0 34 -58 138 -95 171 -61 53 -118 74 -210 75
l-80 1 -3 46 -3 45 113 -4 c137 -5 168 2 413 93 162 60 436 186 494 227 14 10
27 15 31 13 4 -3 10 -27 14 -55z m599 -214 c43 -17 101 -85 115 -135 16 -52
15 -145 -2 -184 -37 -88 -177 -156 -227 -111 -29 26 -46 11 -53 -50 -4 -31
-24 -88 -45 -133 -91 -188 -239 -306 -491 -394 -85 -30 -106 -33 -205 -33
-177 0 -293 45 -429 165 -47 42 -136 152 -136 169 0 4 10 10 23 14 64 16 145
110 171 199 10 34 23 16 35 -50 13 -73 44 -152 64 -165 32 -20 107 -1 107 28
0 20 -24 28 -48 15 -15 -8 -22 -7 -30 2 -12 16 -39 94 -46 135 l-6 34 48 -43
c73 -65 123 -84 217 -84 62 0 90 5 126 23 102 50 169 155 169 266 l0 53 90 32
c49 17 93 31 98 31 5 0 26 -16 47 -36 32 -30 43 -35 69 -30 53 11 91 60 141
183 21 49 47 76 95 97 44 19 62 19 103 2z m-923 -81 c0 -2 -17 -9 -38 -15 -22
-5 -47 -19 -57 -30 -34 -37 -8 -47 144 -55 l139 -7 21 -48 c29 -67 27 -138 -4
-199 -122 -241 -475 -153 -475 119 0 106 59 191 156 225 37 13 114 20 114 10z
m-684 -140 c-22 -16 -46 -20 -46 -7 0 15 13 22 39 22 25 -1 25 -1 7 -15z m-57
-175 c18 -63 47 -148 66 -187 34 -73 34 -73 11 -73 -95 0 -194 92 -211 197 -9
57 16 139 56 183 38 41 32 50 78 -120z m311 69 c31 -56 34 -155 6 -208 -34
-63 -129 -133 -158 -115 -21 13 -110 240 -123 312 l-6 40 73 6 c109 9 162 12
173 11 6 -1 21 -21 35 -46z m993 -631 c38 -108 111 -189 241 -263 l50 -28 -25
-20 c-68 -55 -239 -119 -376 -141 -162 -26 -173 -23 -173 43 0 14 -7 37 -16
49 -13 19 -24 22 -92 22 -90 1 -272 17 -281 26 -10 10 41 46 116 81 86 40 96
40 111 8 12 -26 36 -33 47 -15 4 6 -1 33 -10 61 -10 28 -15 52 -14 53 2 2 38
13 79 26 87 26 244 98 280 128 14 12 30 21 35 22 6 0 18 -24 28 -52z m-2521
-208 c40 -5 163 -16 273 -25 194 -15 826 -67 1285 -105 470 -39 625 -54 632
-65 7 -9 12 -1865 5 -1865 -7 0 -597 53 -887 79 -785 73 -987 91 -1170 106
-107 9 -205 18 -217 21 l-23 4 0 930 c0 799 2 930 14 930 8 0 48 -4 88 -10z
m2952 -167 c190 -113 374 -303 482 -498 6 -11 30 -52 53 -92 45 -78 151 -307
151 -327 0 -12 -29 -35 -102 -79 -15 -10 -58 -24 -95 -32 -38 -9 -78 -20 -89
-26 -43 -22 -216 8 -284 48 -27 15 -28 20 -34 117 -10 155 -18 240 -23 249 -8
13 -51 7 -57 -8 -3 -9 -1 -80 4 -158 5 -78 10 -159 10 -179 0 -37 -1 -38 -37
-38 -55 0 -163 -18 -203 -34 -19 -8 -56 -21 -81 -30 -56 -20 -174 -89 -211
-124 -22 -20 -41 -27 -85 -30 -101 -7 -93 -54 -97 554 l-4 531 103 11 c159 18
259 48 410 124 22 11 51 29 65 39 36 26 55 24 124 -18z m174 -1102 c122 -31
178 -34 262 -17 41 9 76 16 78 16 2 0 2 -57 0 -127 -5 -224 -28 -242 -305
-243 -186 0 -225 -7 -453 -82 -227 -74 -304 -69 -347 25 -37 84 -8 166 89 252
182 160 456 231 676 176z m-771 -184 c2 -3 -10 -27 -28 -55 -42 -67 -47 -121
-19 -195 36 -96 114 -134 239 -114 30 4 58 6 62 5 5 -2 -71 -51 -168 -110 -98
-58 -181 -104 -185 -101 -9 5 -11 544 -2 566 4 11 18 14 51 11 25 -2 47 -5 50
-7z m592 -261 c-5 -5 -541 -335 -621 -382 -56 -34 -78 -41 -78 -26 0 5 6 15
13 23 13 17 586 362 628 378 24 10 66 15 58 7z m-2574 -236 c248 -22 578 -51
735 -65 157 -14 350 -32 430 -40 80 -8 255 -24 390 -35 135 -12 251 -23 258
-25 6 -3 12 -14 12 -25 0 -25 8 -25 -305 5 -137 13 -617 58 -1065 99 -1025 95
-930 84 -930 107 0 11 6 19 13 19 7 0 215 -18 462 -40z"/>
<path d="M3709 4195 c-91 -48 -178 -175 -119 -175 11 0 20 4 20 9 0 18 82 100
126 126 28 17 44 32 42 42 -5 25 -19 24 -69 -2z"/>
<path d="M2880 3530 c-36 -30 -94 -54 -163 -66 -49 -8 -48 -37 1 -42 76 -8
238 74 230 116 -5 27 -30 24 -68 -8z"/>
<path d="M2726 4061 c-27 -30 -25 -89 3 -112 51 -41 131 -10 131 50 0 31 -7
42 -40 64 -33 23 -73 22 -94 -2z"/>
<path d="M2272 3990 c-46 -19 -52 -105 -9 -135 29 -21 59 -19 90 5 38 30 45
77 16 106 -29 27 -66 37 -97 24z"/>
<path d="M1661 2569 c-6 -18 -11 -56 -11 -85 0 -46 -5 -61 -35 -99 -39 -52
-75 -157 -75 -220 0 -69 -2 -70 -81 -67 -79 4 -76 10 -46 -76 9 -25 8 -40 -2
-65 -8 -17 -14 -43 -15 -57 -1 -25 0 -25 116 -37 106 -10 122 -14 161 -43 87
-62 154 -68 250 -20 44 22 51 23 159 13 62 -5 115 -8 117 -6 3 2 0 28 -6 58
-10 45 -9 61 3 91 8 20 14 46 12 58 -3 18 -11 22 -63 26 l-60 5 -7 99 c-6 87
-12 107 -48 180 -35 72 -40 90 -40 152 0 45 -5 77 -14 90 -14 19 -15 18 -41
-6 -14 -13 -32 -36 -38 -50 -7 -14 -20 -25 -30 -24 -9 0 -37 1 -61 2 -38 2
-45 6 -56 32 -17 41 -48 80 -65 80 -7 0 -18 -14 -24 -31z m182 -119 c9 0 17
-3 17 -7 0 -5 -20 -8 -45 -8 -25 0 -45 3 -45 6 0 13 16 20 35 15 11 -3 28 -6
38 -6z m26 -75 c12 -12 12 -17 1 -29 -10 -13 -10 -16 4 -16 9 0 16 5 16 10 0
6 5 10 10 10 21 0 10 -40 -13 -45 -15 -4 -28 -19 -35 -39 -19 -51 -15 -71 16
-84 25 -11 25 -11 2 -6 -14 3 -44 8 -67 11 -38 5 -40 7 -27 21 17 16 11 61 -9
74 -9 6 -8 10 2 17 8 5 10 14 5 22 -11 19 -16 50 -9 67 6 17 83 7 104 -13z
m-245 -51 c-20 -32 -33 -48 -29 -34 9 28 56 102 62 97 2 -2 -13 -31 -33 -63z
m374 0 c-4 -3 -12 5 -18 18 -12 22 -12 22 6 6 10 -10 15 -20 12 -24z m-288 12
c0 -3 -4 -8 -10 -11 -5 -3 -10 -1 -10 4 0 6 5 11 10 11 6 0 10 -2 10 -4z m35
-16 c3 -5 -1 -10 -9 -10 -9 0 -16 5 -16 10 0 6 4 10 9 10 6 0 13 -4 16 -10z
m205 -25 c0 -8 -2 -15 -4 -15 -2 0 -6 7 -10 15 -3 8 -1 15 4 15 6 0 10 -7 10
-15z m-283 -17 c-3 -8 -6 -5 -6 6 -1 11 2 17 5 13 3 -3 4 -12 1 -19z m361 -19
c-3 -8 -7 -3 -11 10 -4 17 -3 21 5 13 5 -5 8 -16 6 -23z m-288 1 c0 -5 -5 -10
-11 -10 -5 0 -7 5 -4 10 3 6 8 10 11 10 2 0 4 -4 4 -10z m240 -11 c0 -5 -4 -9
-10 -9 -5 0 -10 7 -10 16 0 8 5 12 10 9 6 -3 10 -10 10 -16z m-34 -66 c-14
-14 -23 9 -13 32 l12 25 3 -26 c2 -14 1 -28 -2 -31z m-346 -9 c3 -18 12 -30
25 -33 22 -4 35 -18 35 -39 0 -11 -10 -12 -42 -7 -24 4 -47 11 -51 15 -5 4 -5
29 -2 54 8 52 27 57 35 10z m141 -21 c-10 -17 -10 -16 -11 3 0 23 13 41 18 25
2 -6 -1 -18 -7 -28z m309 -33 l0 -60 -32 0 c-18 0 -39 4 -47 9 -20 13 -7 39
21 43 13 2 24 11 26 23 4 19 20 45 28 45 2 0 4 -27 4 -60z m-225 40 c3 -5 -3
-10 -14 -10 -12 0 -21 5 -21 10 0 6 6 10 14 10 8 0 18 -4 21 -10z m-226 -121
c24 -6 57 -7 73 -4 17 4 35 2 43 -5 18 -15 20 -70 3 -70 -10 0 -10 -2 -2 -8 7
-4 14 -18 17 -32 2 -14 5 1 6 33 1 52 3 57 24 57 13 0 28 5 35 12 9 9 15 8 25
-6 11 -15 17 -17 35 -7 13 7 43 10 70 7 26 -3 86 -8 135 -12 83 -6 88 -8 94
-32 4 -16 2 -27 -5 -30 -8 -2 -9 -19 -5 -48 l6 -45 -94 6 c-52 4 -137 11 -189
17 -52 6 -119 10 -148 9 -30 -1 -59 2 -65 7 -7 6 -60 13 -119 17 -60 4 -108
10 -108 14 0 4 5 12 12 19 6 6 11 36 10 66 l-1 55 52 -5 c29 -3 72 -10 96 -15z
m241 -216 c34 -5 34 -6 11 -14 -28 -11 -127 6 -137 22 -6 10 32 8 126 -8z"/>
<path d="M1550 2010 c0 -5 5 -10 10 -10 6 0 10 5 10 10 0 6 -4 10 -10 10 -5 0
-10 -4 -10 -10z"/>
<path d="M1630 2010 c0 -5 5 -10 10 -10 6 0 10 5 10 10 0 6 -4 10 -10 10 -5 0
-10 -4 -10 -10z"/>
<path d="M1831 1894 c0 -11 3 -14 6 -6 3 7 2 16 -1 19 -3 4 -6 -2 -5 -13z"/>
<path d="M435 5219 c-48 -25 -95 -68 -95 -86 0 -7 -12 -36 -26 -63 -24 -46
-26 -58 -21 -138 3 -61 11 -99 26 -129 11 -23 21 -47 21 -54 0 -20 68 -96 113
-126 23 -16 62 -34 87 -42 25 -7 54 -18 65 -23 13 -8 20 -7 23 1 2 6 16 11 31
11 65 0 156 74 201 163 35 71 37 95 9 131 -39 50 -99 27 -119 -46 -23 -81
-111 -144 -163 -117 -38 20 -107 80 -102 89 3 4 -1 10 -9 13 -8 3 -17 19 -21
36 -4 17 -11 33 -16 36 -14 9 -11 143 4 161 37 47 62 64 93 64 64 0 85 71 33
114 -38 32 -80 33 -134 5z"/>
<path d="M4388 5193 c-10 -2 -18 -10 -18 -16 0 -7 -21 -39 -48 -71 -57 -72
-85 -116 -72 -116 6 0 10 -8 10 -19 0 -38 63 -60 99 -35 21 15 23 15 36 -2 8
-11 15 -24 15 -30 0 -29 95 -31 130 -4 14 11 29 20 33 20 13 0 -3 -61 -25 -97
-28 -46 -21 -103 14 -122 42 -24 78 -6 107 54 13 28 27 58 32 67 5 10 9 27 9
38 0 11 5 20 10 20 19 0 10 70 -14 108 -33 53 -50 64 -103 67 -42 3 -49 7 -75
44 -15 23 -28 50 -28 59 0 10 -5 23 -12 30 -12 12 -65 14 -100 5z"/>
<path d="M1616 1005 c-16 -15 -26 -35 -26 -53 0 -15 -4 -32 -9 -38 -4 -5 -14
-58 -21 -119 -7 -60 -16 -115 -21 -120 -4 -6 -14 -71 -20 -144 -12 -127 -12
-134 6 -147 26 -19 70 -18 90 3 24 23 34 54 41 130 4 38 11 71 15 74 5 3 40 1
79 -4 50 -7 70 -14 70 -24 0 -8 -5 -56 -11 -108 -14 -117 -7 -135 54 -135 61
0 72 18 87 141 6 57 15 109 20 114 5 6 14 39 20 75 6 36 16 70 21 76 5 6 12
38 15 71 6 57 5 61 -21 81 -36 28 -47 28 -84 -4 -21 -18 -31 -35 -31 -54 0
-16 -4 -31 -9 -34 -4 -3 -11 -23 -15 -45 l-6 -39 -42 5 c-24 2 -52 8 -63 13
-11 5 -29 10 -40 12 -17 3 -19 10 -16 48 1 25 7 47 11 50 5 3 12 39 16 81 l6
76 -36 21 c-46 27 -47 27 -80 -3z"/>
<path d="M3618 891 c-40 -13 -118 -70 -118 -86 0 -8 -3 -15 -8 -15 -13 0 -32
-78 -32 -133 0 -33 7 -67 20 -92 11 -22 20 -44 20 -50 0 -18 52 -61 89 -74 86
-28 228 12 286 81 31 37 32 62 0 93 -31 31 -56 32 -92 1 -16 -14 -41 -28 -56
-31 -15 -4 -30 -11 -33 -16 -7 -12 -54 -11 -54 1 0 6 12 15 28 21 59 22 132
118 131 171 -2 88 -96 155 -181 129z m19 -158 c-9 -9 -20 -13 -24 -9 -4 4 -1
11 7 16 25 16 35 11 17 -7z"/>
<path d="M2255 709 c-49 -43 -65 -78 -72 -154 -11 -118 26 -194 105 -215 61
-16 97 -5 153 48 85 80 91 159 21 254 -55 75 -86 98 -133 98 -29 0 -47 -8 -74
-31z m105 -162 c11 -20 12 -31 4 -44 -21 -34 -39 -21 -42 31 -4 54 12 59 38
13z"/>
<path d="M3113 734 c-24 -11 -73 -59 -73 -71 0 -17 -18 -16 -54 2 -32 17 -82
20 -91 5 -3 -5 -23 -10 -44 -10 -56 0 -66 -18 -64 -114 2 -117 11 -166 31
-172 9 -3 24 -9 34 -14 40 -22 98 46 98 116 l0 29 20 -33 c11 -18 20 -39 20
-47 0 -16 38 -35 71 -35 11 0 31 11 44 25 20 19 25 35 26 77 0 29 4 62 9 73 7
18 9 18 19 -9 7 -16 15 -49 18 -73 3 -24 10 -43 14 -43 5 0 9 -9 9 -20 0 -40
78 -55 107 -20 18 21 29 100 14 100 -5 0 -12 21 -16 48 -8 55 -47 141 -75 167
-19 17 -94 30 -117 19z"/>
</g>
</svg>
